<svg xmlns="http://www.w3.org/2000/svg" xmlns:xlink="http://www.w3.org/1999/xlink" viewBox="0 0 100 100"><defs><linearGradient xlink:href="#a" id="d" x1="10.4" x2="21.3" y1="35" y2="35" gradientTransform="rotate(57.3 17.3 83.1)" gradientUnits="userSpaceOnUse"/><linearGradient id="a"><stop offset="0" stop-color="#fff"/><stop offset="1" stop-color="#fff" stop-opacity="0"/></linearGradient><linearGradient xlink:href="#a" id="e" x1="28.3" x2="32.4" y1="25.1" y2="25.1" gradientTransform="matrix(.991 .135 .135 -.991 19.3 78.5)" gradientUnits="userSpaceOnUse"/><linearGradient id="b"><stop offset="0" stop-opacity="0"/><stop offset="1" stop-opacity=".927"/></linearGradient><linearGradient xlink:href="#a" id="j" x1="10.4" x2="21.3" y1="35" y2="35" gradientTransform="rotate(57.3 6.32 181)" gradientUnits="userSpaceOnUse"/><linearGradient xlink:href="#a" id="k" x1="28.3" x2="32.4" y1="25.1" y2="25.1" gradientTransform="rotate(172 83 72.2)" gradientUnits="userSpaceOnUse"/><linearGradient xlink:href="#a" id="r" x1="10.4" x2="21.3" y1="35" y2="35" gradientTransform="rotate(57.3 -16.6 57.7)" gradientUnits="userSpaceOnUse"/><linearGradient xlink:href="#a" id="s" x1="28.3" x2="32.4" y1="25.1" y2="25.1" gradientTransform="rotate(94.7 6.25 43.5)" gradientUnits="userSpaceOnUse"/><linearGradient xlink:href="#a" id="v" x1="10.4" x2="21.3" y1="35" y2="35" gradientTransform="rotate(57.3 -32.8 64.4)" gradientUnits="userSpaceOnUse"/><linearGradient id="w" x1="14.7" x2="26.5" y1="85.6" y2="85.6" gradientTransform="translate(.334)" gradientUnits="userSpaceOnUse"><stop offset="0"/><stop offset="1" stop-opacity="0"/></linearGradient><linearGradient xlink:href="#a" id="x" x1="28.3" x2="32.4" y1="25.1" y2="25.1" gradientTransform="rotate(172 76.4 105)" gradientUnits="userSpaceOnUse"/><radialGradient xlink:href="#b" id="f" cx="46.4" cy="25.9" r="6.81" gradientTransform="matrix(2.63 -.501 .333 1.75 -84.7 63.6)" gradientUnits="userSpaceOnUse"/><radialGradient xlink:href="#b" id="h" cx="46.4" cy="25.9" r="6.81" gradientTransform="matrix(2.63 -.501 .333 1.75 -76.1 72.4)" gradientUnits="userSpaceOnUse"/><radialGradient xlink:href="#b" id="l" cx="46.4" cy="25.9" r="6.81" gradientTransform="matrix(2.63 -.501 .333 1.75 -84.1 4.36)" gradientUnits="userSpaceOnUse"/><radialGradient xlink:href="#b" id="n" cx="46.4" cy="25.9" r="6.81" gradientTransform="matrix(2.63 -.501 .333 1.75 -106 38.4)" gradientUnits="userSpaceOnUse"/><radialGradient xlink:href="#b" id="p" cx="46.4" cy="25.9" r="6.81" gradientTransform="matrix(2.63 -.501 .333 1.75 -103 21.4)" gradientUnits="userSpaceOnUse"/><radialGradient xlink:href="#b" id="t" cx="46.4" cy="25.9" r="6.81" gradientTransform="matrix(2.63 -.501 .333 1.75 -67.3 4.76)" gradientUnits="userSpaceOnUse"/><radialGradient xlink:href="#b" id="y" cx="46.4" cy="25.9" r="6.81" gradientTransform="matrix(2.63 -.501 .333 1.75 -88.5 38.4)" gradientUnits="userSpaceOnUse"/><radialGradient id="c" cx="41.9" cy="58.6" r="49" gradientTransform="translate(8.34 -8.22)" gradientUnits="userSpaceOnUse"><stop offset="0" stop-color="#86b1cc"/><stop offset="1" stop-color="#00245a" stop-opacity=".983"/></radialGradient><filter id="g" width="1.09" height="1.13" x="-.047" y="-.063" color-interpolation-filters="sRGB"><feGaussianBlur stdDeviation=".251"/></filter><filter id="i" width="1.09" height="1.13" x="-.047" y="-.063" color-interpolation-filters="sRGB"><feGaussianBlur stdDeviation=".251"/></filter><filter id="m" width="1.09" height="1.13" x="-.047" y="-.063" color-interpolation-filters="sRGB"><feGaussianBlur stdDeviation=".251"/></filter><filter id="o" width="1.09" height="1.13" x="-.047" y="-.063" color-interpolation-filters="sRGB"><feGaussianBlur stdDeviation=".251"/></filter><filter id="q" width="1.09" height="1.13" x="-.047" y="-.063" color-interpolation-filters="sRGB"><feGaussianBlur stdDeviation=".251"/></filter><filter id="u" width="1.09" height="1.13" x="-.047" y="-.063" color-interpolation-filters="sRGB"><feGaussianBlur stdDeviation=".251"/></filter><filter id="z" width="1.09" height="1.13" x="-.047" y="-.063" color-interpolation-filters="sRGB"><feGaussianBlur stdDeviation=".251"/></filter></defs><g transform="translate(-.281 -.395)"><circle cx="50.3" cy="50.4" r="48.8" fill="url(#c)"/><g transform="translate(8.08 -8)"><circle cx="58.6" cy="57.7" r="8.03"/><path fill="url(#d)" d="M62.7 51.7c-2.31-2.13-5.9-2.19-8.55-.488-3.22 2.07-4.15 6.35-2.08 9.56.766 1.19 1.06 2.24 2.37 2.78a6.916 6.916 0 0 1-1.14-1.35c-2.07-3.22-.317-7.63 2.9-9.69 1.91-1.22 4.41-1.68 6.5-.812z" opacity=".507"/><path fill="url(#e)" d="M54 63.8a7.11 7.11 0 0 1-3.2-6.93 7.11 7.11 0 0 1 3.13-4.97 8.03 8.03 0 0 0-2.54 4.84A8.03 8.03 0 0 0 54 63.8z" opacity=".608"/></g><circle cx="45" cy="83" r="8.03" fill="#fff" stroke="#000" stroke-opacity=".24" stroke-width=".05"/><path d="M40.4 89.1a7.11 7.11 0 0 1-3.2-6.93 7.11 7.11 0 0 1 3.13-4.97 8.03 8.03 0 0 0-2.54 4.84 8.03 8.03 0 0 0 2.61 7.06z" opacity=".147"/><path fill="url(#f)" d="M39.9 88.5a7.39 7.39 0 0 0 9.5 1.04 7.39 7.39 0 0 0 2.94-8.29 6.8 8.03 56 0 1-3.85 6.63 6.8 8.03 56 0 1-8.58.62z" filter="url(#g)" opacity=".633"/><g transform="translate(8.34 -8.79)"><circle cx="53.6" cy="91.8" r="8.03" fill="#fff" stroke="#000" stroke-opacity=".24" stroke-width=".05"/><path fill="url(#h)" d="M48.4 97.3a7.39 7.39 0 0 0 9.5 1.04 7.39 7.39 0 0 0 2.94-8.29 6.8 8.03 56 0 1-3.85 6.63 6.8 8.03 56 0 1-8.58.62z" filter="url(#i)" opacity=".633"/></g><g transform="translate(-98.9 -95.9)"><circle cx="136" cy="112" r="8.03"/><path fill="url(#j)" d="M140 106c-2.31-2.13-5.9-2.19-8.55-.488-3.22 2.07-4.15 6.35-2.08 9.56.766 1.19 1.06 2.24 2.37 2.78a6.916 6.916 0 0 1-1.14-1.35c-2.07-3.22-.317-7.63 2.9-9.69 1.91-1.22 4.41-1.68 6.5-.812z" opacity=".507"/><path fill="url(#k)" d="M140 118a7.11 7.11 0 0 0 3.2-6.93 7.11 7.11 0 0 0-3.13-4.97 8.03 8.03 0 0 1 2.54 4.84A8.03 8.03 0 0 1 140 118z" opacity=".608"/></g><g transform="translate(8.17 -7.81)"><circle cx="45.5" cy="23.8" r="8.03" fill="#fff" stroke="#000" stroke-opacity=".24" stroke-width=".05"/><path d="M40.9 29.9a7.11 7.11 0 0 1-3.2-6.93A7.11 7.11 0 0 1 40.83 18a8.03 8.03 0 0 0-2.54 4.84 8.03 8.03 0 0 0 2.61 7.06z" opacity=".147"/><path fill="url(#l)" d="M40.4 29.3a7.39 7.39 0 0 0 9.5 1.04 7.39 7.39 0 0 0 2.94-8.29 6.8 8.03 56 0 1-3.85 6.63 6.8 8.03 56 0 1-8.58.62z" filter="url(#m)" opacity=".633"/></g><g transform="translate(9.02 -8.2)"><circle cx="23.5" cy="57.9" r="8.03" fill="#fff" stroke="#000" stroke-opacity=".24" stroke-width=".05"/><path fill="url(#n)" d="M18.3 63.4a7.39 7.39 0 0 0 9.5 1.04 7.39 7.39 0 0 0 2.94-8.29 6.8 8.03 56 0 1-3.85 6.63 6.8 8.03 56 0 1-8.58.62z" filter="url(#o)" opacity=".633"/></g><g transform="translate(8.44 -8.09)"><circle cx="26.2" cy="40.9" r="8.03" fill="#fff" stroke="#000" stroke-opacity=".24" stroke-width=".05"/><path fill="url(#p)" d="M21 46.4a7.39 7.39 0 0 0 9.5 1.04 7.39 7.39 0 0 0 2.94-8.29 6.8 8.03 56 0 1-3.85 6.63 6.8 8.03 56 0 1-8.58.62z" filter="url(#q)" opacity=".633"/><path d="M20.6 35.7a7.11 7.11 0 0 1 7.2-2.52 7.11 7.11 0 0 1 4.65 3.59 8.03 8.03 0 0 0-4.57-2.99 8.03 8.03 0 0 0-7.28 1.92z" opacity=".147"/></g><g transform="translate(8.34 -8.31)"><circle cx="21.6" cy="74.6" r="8.03"/><path fill="url(#r)" d="M25.8 68.6c-2.31-2.13-5.9-2.19-8.55-.488-3.22 2.07-4.15 6.35-2.08 9.56.766 1.19 1.06 2.24 2.37 2.78a6.916 6.916 0 0 1-1.14-1.35c-2.07-3.22-.317-7.63 2.9-9.69 1.91-1.22 4.41-1.68 6.5-.812z" opacity=".507"/><path fill="url(#s)" d="M28.3 71.6a7.11 7.11 0 0 0-6.08-4.62 7.11 7.11 0 0 0-5.53 1.99 8.03 8.03 0 0 1 5.27-1.44 8.03 8.03 0 0 1 6.34 4.07z" opacity=".608"/></g><g transform="translate(8.34 -8.22)"><circle cx="62.3" cy="24.2" r="8.03" fill="#fff" stroke="#000" stroke-opacity=".24" stroke-width=".05"/><path fill="url(#t)" d="M57.2 29.7a7.39 7.39 0 0 0 9.5 1.04 7.39 7.39 0 0 0 2.94-8.29 6.8 8.03 56 0 1-3.85 6.63 6.8 8.03 56 0 1-8.58.62z" filter="url(#u)" opacity=".633"/></g><g transform="translate(8.1 -8.3)"><circle cx="19.8" cy="91.3" r="8.03"/><path fill="url(#v)" d="M23.9 85.3c-2.31-2.13-5.9-2.19-8.55-.488-3.22 2.07-4.15 6.35-2.08 9.56.766 1.19 1.06 2.24 2.37 2.78a6.916 6.916 0 0 1-1.14-1.35c-2.07-3.22-.317-7.63 2.9-9.69 1.91-1.22 4.41-1.68 6.5-.812z" opacity=".507"/><path fill="url(#w)" d="M26.8 87.7a7.11 7.11 0 0 0-6.36-4.22 7.11 7.11 0 0 0-5.39 2.33 8.03 8.03 0 0 1 5.17-1.77 8.03 8.03 0 0 1 6.58 3.66z" opacity=".608"/></g><path fill="url(#x)" d="M132 185a7.11 7.11 0 0 0 3.2-6.93 7.11 7.11 0 0 0-3.13-4.97 8.03 8.03 0 0 1 2.54 4.84A8.03 8.03 0 0 1 132 185z" opacity=".608" transform="translate(-98.9 -95.9)"/><g transform="translate(8.1 -8.2)"><circle cx="41.2" cy="57.9" r="8.03" fill="#fff" stroke="#000" stroke-opacity=".24" stroke-width=".05"/><path fill="url(#y)" d="M36 63.4a7.39 7.39 0 0 0 9.5 1.04 7.39 7.39 0 0 0 2.94-8.29 6.8 8.03 56 0 1-3.85 6.63 6.8 8.03 56 0 1-8.58.62z" filter="url(#z)" opacity=".633"/></g><path d="M54.1 56.1a7.11 7.11 0 0 0 3.2-6.93 7.11 7.11 0 0 0-3.13-4.97 8.03 8.03 0 0 1 2.54 4.84 8.03 8.03 0 0 1-2.61 7.06z" opacity=".147"/></g></svg>